<?xml version="1.0" encoding="UTF-8" standalone="no"?>
<!DOCTYPE svg PUBLIC "-//W3C//DTD SVG 1.1//EN"
 "http://www.w3.org/Graphics/SVG/1.1/DTD/svg11.dtd">
<!-- Generated by graphviz version 2.40.1 (20161225.0304)
 -->
<!-- Title: dependencies Pages: 1 -->
<svg width="954pt" height="284pt"
 viewBox="0.00 0.00 954.00 284.00" xmlns="http://www.w3.org/2000/svg" xmlns:xlink="http://www.w3.org/1999/xlink">
<g id="graph0" class="graph" transform="scale(1 1) rotate(0) translate(4 280)">
<title>dependencies</title>
<polygon fill="#ffffff" stroke="transparent" points="-4,4 -4,-280 950,-280 950,4 -4,4"/>
<text text-anchor="start" x="452.0091" y="-42.4" font-family="sans-serif" font-weight="bold" font-size="14.00" fill="#000000">Legend</text>
<polygon fill="#ffffb3" stroke="transparent" points="239,-10 239,-30 259,-30 259,-10 239,-10"/>
<text text-anchor="start" x="262.629" y="-15.4" font-family="sans-serif" font-size="14.00" fill="#000000"> &#160;Declarations</text>
<polygon fill="#8dd3c7" stroke="transparent" points="352,-10 352,-30 372,-30 372,-10 352,-10"/>
<text text-anchor="start" x="375.7251" y="-15.4" font-family="sans-serif" font-size="14.00" fill="#000000"> &#160;Module</text>
<polygon fill="#80b1d3" stroke="transparent" points="438,-10 438,-30 458,-30 458,-10 438,-10"/>
<text text-anchor="start" x="461.7812" y="-15.4" font-family="sans-serif" font-size="14.00" fill="#000000"> &#160;Bootstrap</text>
<polygon fill="#fdb462" stroke="transparent" points="535,-10 535,-30 555,-30 555,-10 535,-10"/>
<text text-anchor="start" x="558.6732" y="-15.4" font-family="sans-serif" font-size="14.00" fill="#000000"> &#160;Providers</text>
<polygon fill="#fb8072" stroke="transparent" points="631,-10 631,-30 651,-30 651,-10 631,-10"/>
<text text-anchor="start" x="654.7258" y="-15.4" font-family="sans-serif" font-size="14.00" fill="#000000"> &#160;Exports</text>
<g id="clust1" class="cluster">
<title>cluster_AppModule</title>
<polygon fill="none" stroke="#000000" stroke-dasharray="1,5" points="8,-70 8,-268 938,-268 938,-70 8,-70"/>
</g>
<g id="clust2" class="cluster">
<title>cluster_AppModule_declarations</title>
<polygon fill="none" stroke="#000000" points="330,-78 330,-130 930,-130 930,-78 330,-78"/>
</g>
<g id="clust7" class="cluster">
<title>cluster_AppModule_imports</title>
<polygon fill="none" stroke="#000000" points="178,-78 178,-130 322,-130 322,-78 178,-78"/>
</g>
<g id="clust9" class="cluster">
<title>cluster_AppModule_bootstrap</title>
<polygon fill="none" stroke="#000000" points="417,-208 417,-260 541,-260 541,-208 417,-208"/>
</g>
<g id="clust10" class="cluster">
<title>cluster_AppModule_providers</title>
<polygon fill="none" stroke="#000000" points="16,-78 16,-130 170,-130 170,-78 16,-78"/>
</g>
<!-- AddObjectComponent -->
<g id="node1" class="node">
<title>AddObjectComponent</title>
<polygon fill="#ffffb3" stroke="#000000" points="922.2562,-122 779.7438,-122 779.7438,-86 922.2562,-86 922.2562,-122"/>
<text text-anchor="middle" x="851" y="-99.8" font-family="Times,serif" font-size="14.00" fill="#000000">AddObjectComponent</text>
</g>
<!-- AppModule -->
<g id="node5" class="node">
<title>AppModule</title>
<polygon fill="#8dd3c7" stroke="#000000" points="520.6571,-187 517.6571,-191 496.6571,-191 493.6571,-187 437.3429,-187 437.3429,-151 520.6571,-151 520.6571,-187"/>
<text text-anchor="middle" x="479" y="-164.8" font-family="Times,serif" font-size="14.00" fill="#000000">AppModule</text>
</g>
<!-- AddObjectComponent&#45;&gt;AppModule -->
<g id="edge1" class="edge">
<title>AddObjectComponent&#45;&gt;AppModule</title>
<path fill="none" stroke="#000000" d="M851,-122.2843C851,-143.3211 851,-175 851,-175 851,-175 530.95,-175 530.95,-175"/>
<polygon fill="#000000" stroke="#000000" points="530.95,-171.5001 520.95,-175 530.95,-178.5001 530.95,-171.5001"/>
</g>
<!-- AppComponent -->
<g id="node2" class="node">
<title>AppComponent</title>
<polygon fill="#ffffb3" stroke="#000000" points="761.9399,-122 656.0601,-122 656.0601,-86 761.9399,-86 761.9399,-122"/>
<text text-anchor="middle" x="709" y="-99.8" font-family="Times,serif" font-size="14.00" fill="#000000">AppComponent</text>
</g>
<!-- AppComponent&#45;&gt;AppModule -->
<g id="edge2" class="edge">
<title>AppComponent&#45;&gt;AppModule</title>
<path fill="none" stroke="#000000" d="M709,-122.0225C709,-139.3734 709,-163 709,-163 709,-163 530.9181,-163 530.9181,-163"/>
<polygon fill="#000000" stroke="#000000" points="530.9181,-159.5001 520.9181,-163 530.9181,-166.5001 530.9181,-159.5001"/>
</g>
<!-- ObjectDetailsComponent -->
<g id="node3" class="node">
<title>ObjectDetailsComponent</title>
<polygon fill="#ffffb3" stroke="#000000" points="638.3019,-122 479.6981,-122 479.6981,-86 638.3019,-86 638.3019,-122"/>
<text text-anchor="middle" x="559" y="-99.8" font-family="Times,serif" font-size="14.00" fill="#000000">ObjectDetailsComponent</text>
</g>
<!-- ObjectDetailsComponent&#45;&gt;AppModule -->
<g id="edge3" class="edge">
<title>ObjectDetailsComponent&#45;&gt;AppModule</title>
<path fill="none" stroke="#000000" d="M500.3387,-122.1061C500.3387,-122.1061 500.3387,-140.991 500.3387,-140.991"/>
<polygon fill="#000000" stroke="#000000" points="496.8388,-140.9909 500.3387,-150.991 503.8388,-140.991 496.8388,-140.9909"/>
</g>
<!-- ObjectsComponent -->
<g id="node4" class="node">
<title>ObjectsComponent</title>
<polygon fill="#ffffb3" stroke="#000000" points="462.094,-122 337.906,-122 337.906,-86 462.094,-86 462.094,-122"/>
<text text-anchor="middle" x="400" y="-99.8" font-family="Times,serif" font-size="14.00" fill="#000000">ObjectsComponent</text>
</g>
<!-- ObjectsComponent&#45;&gt;AppModule -->
<g id="edge4" class="edge">
<title>ObjectsComponent&#45;&gt;AppModule</title>
<path fill="none" stroke="#000000" d="M449.6094,-122.1061C449.6094,-122.1061 449.6094,-140.991 449.6094,-140.991"/>
<polygon fill="#000000" stroke="#000000" points="446.1095,-140.9909 449.6094,-150.991 453.1095,-140.991 446.1095,-140.9909"/>
</g>
<!-- AppComponent  -->
<g id="node7" class="node">
<title>AppComponent </title>
<polygon fill="#80b1d3" stroke="#000000" points="533.439,-252 424.561,-252 424.561,-216 533.439,-216 533.439,-252"/>
<text text-anchor="middle" x="479" y="-229.8" font-family="Times,serif" font-size="14.00" fill="#000000">AppComponent </text>
</g>
<!-- AppModule&#45;&gt;AppComponent  -->
<g id="edge6" class="edge">
<title>AppModule&#45;&gt;AppComponent </title>
<path fill="none" stroke="#000000" stroke-dasharray="1,5" d="M479,-187.1061C479,-187.1061 479,-205.991 479,-205.991"/>
<polygon fill="#000000" stroke="#000000" points="475.5001,-205.9909 479,-215.991 482.5001,-205.991 475.5001,-205.9909"/>
</g>
<!-- AppRoutingModule -->
<g id="node6" class="node">
<title>AppRoutingModule</title>
<polygon fill="#8dd3c7" stroke="#000000" points="314.2744,-122 311.2744,-126 290.2744,-126 287.2744,-122 185.7256,-122 185.7256,-86 314.2744,-86 314.2744,-122"/>
<text text-anchor="middle" x="250" y="-99.8" font-family="Times,serif" font-size="14.00" fill="#000000">AppRoutingModule</text>
</g>
<!-- AppRoutingModule&#45;&gt;AppModule -->
<g id="edge5" class="edge">
<title>AppRoutingModule&#45;&gt;AppModule</title>
<path fill="none" stroke="#000000" d="M250,-122.0225C250,-139.3734 250,-163 250,-163 250,-163 427.2641,-163 427.2641,-163"/>
<polygon fill="#000000" stroke="#000000" points="427.2642,-166.5001 437.2641,-163 427.2641,-159.5001 427.2642,-166.5001"/>
</g>
<!-- ObjectsService -->
<g id="node8" class="node">
<title>ObjectsService</title>
<ellipse fill="#fdb462" stroke="#000000" cx="93" cy="-104" rx="69.4761" ry="18"/>
<text text-anchor="middle" x="93" y="-99.8" font-family="Times,serif" font-size="14.00" fill="#000000">ObjectsService</text>
</g>
<!-- ObjectsService&#45;&gt;AppModule -->
<g id="edge7" class="edge">
<title>ObjectsService&#45;&gt;AppModule</title>
<path fill="none" stroke="#000000" d="M93,-122.2843C93,-143.3211 93,-175 93,-175 93,-175 427.3245,-175 427.3245,-175"/>
<polygon fill="#000000" stroke="#000000" points="427.3245,-178.5001 437.3245,-175 427.3245,-171.5001 427.3245,-178.5001"/>
</g>
</g>
</svg>
